<?xml version="1.0" encoding="utf-8"?>
<!-- Generator: Adobe Illustrator 27.0.0, SVG Export Plug-In . SVG Version: 6.00 Build 0)  -->
<svg version="1.1" id="Layer_1" xmlns="http://www.w3.org/2000/svg" xmlns:xlink="http://www.w3.org/1999/xlink" x="0px" y="0px"
	 viewBox="0 0 220 70" style="enable-background:new 0 0 220 70;" xml:space="preserve">
<style type="text/css">
	.st0{fill:#595857;}
	.st1{fill:#E50021;}
</style>
<g>
	<g>
		<path class="st0" d="M190.7,29.3v14.1c-4.8,0.2-6.4-3.9-6.4-7.2c0-3.9,0-6.9,0-6.9h-3.6l0,6.7c0,4.1-2.1,7.2-5,7.2v3.5
			c4.1-0.1,5.8-2,6.8-3.7c2.1,3.8,7.3,3.8,8.2,3.8v0.4h3.6V29.3H190.7z"/>
		<g>
			<path class="st0" d="M203.7,29.3h4.1c0,0-0.2,5.6,7.3,5.9v3.6c0,0-6,0.3-9.4-3.7c-3.2,4-9.3,3.7-9.3,3.7v-3.6
				C196.4,35.2,203.7,35.1,203.7,29.3z"/>
			<rect x="196.4" y="43.4" class="st0" width="18.8" height="3.7"/>
		</g>
		<g>
			<path class="st0" d="M145.4,29.3v4.6h-1.4c-0.6-2.9-2.7-5-5.2-5c-3,0-5.4,2.9-5.4,6.6c0,3.6,2.4,6.6,5.4,6.6c2.5,0,4.5-2,5.2-4.8
				h1.4v9.9h3.6V29.3H145.4z M138.8,38.7c-1,0-1.7-1.4-1.7-3.2c0-1.8,0.8-3.2,1.7-3.2c1,0,1.7,1.4,1.7,3.2
				C140.6,37.3,139.8,38.7,138.8,38.7z"/>
			<rect x="150.4" y="29.3" class="st0" width="3.6" height="17.9"/>
		</g>
		<path class="st0" d="M170,29.3v3.4h-4.7v3.4h4.7v6.8H160V29.3h-3.6c0,0,0,10.4,0,14.6c0,1.5,0.3,2.4,2.4,2.4c1.7,0,8.9,0,11.1,0
			v0.9h3.6V29.3H170z"/>
	</g>
	<path class="st1" d="M124.5,37.2l-13.4,3.1l-0.7-3.2l17.1-3.9l1.4,6.6l-3.6,0.8L124.5,37.2L124.5,37.2L124.5,37.2z M109.5,34.8
		l-2-9.3l11.5-2.7l0.6,3l-7.9,1.9l0.2,0.8l7.7-1.7l0.6,2.8l-7.6,1.7l0.1,0.6l10.1-2.3l-1.6-7.4l3.7-0.9l2.4,10.5l-16.5,3.9
		C110.9,35.9,109.9,36.1,109.5,34.8L109.5,34.8L109.5,34.8z M93,47.4c0,0-1.2,0.2-1.8-1.1l-1-4.5l13.2-3l-0.1-0.6l-13.2,3l-0.6-2.7
		l16.9-3.8l1.3,5.8l-13.1,3l0.1,0.5l13.2-2.9l0.6,2.7L93,47.4L93,47.4L93,47.4z M88.5,35.9c0,0-1.4,3-4.3,3.6L83.3,36
		c0,0,3-0.8,1.5-5.3l3.5-0.8c0,0,1,2.3,0.6,4.7c0,0,2.2-0.8,1-5.1l3.5-0.9c0,0,0.5,4.5,3.8,4.4l0.8,2.9c0,0-1.9,1.4-4.8-1
		c0,0-0.4,2.3-4.1,3.1L88.5,35.9L88.5,35.9L88.5,35.9z M98.6,27.5c1.8-0.3,2.2,1.4,2.2,1.4l1.4,6.2L99,35.9l-1.1-4.6l-1.6,0.3
		l-0.8-3.3L98.6,27.5L98.6,27.5L98.6,27.5z M104.6,26.2l1.7,8l-3.3,0.7l-1.8-8.1L104.6,26.2L104.6,26.2L104.6,26.2z M126.6,18.6
		L80.5,29.2l5.2,23.4l46.1-10.7L126.6,18.6L126.6,18.6L126.6,18.6z"/>
	<path class="st1" d="M19.4,46.7c-2.3,0-4.3-0.8-5.9-2.3l2.9-5.2l-5.9,0c-0.1-0.6-0.2-1.2-0.2-1.8c0-4,2.5-7.5,6.1-8.7l3,5.3l3-5.3
		c3.6,1.3,6.1,4.7,6.1,8.7c0,0.6-0.1,1.2-0.2,1.8l-5.9,0l2.9,5.2C23.7,45.8,21.6,46.7,19.4,46.7L19.4,46.7L19.4,46.7z M30.6,39.2
		c0.1-0.6,0.1-1.2,0.1-1.8c0-4.9-3-9.1-7.2-10.8L25,24l-5.6,1.8L13.7,24l1.5,2.6C11,28.3,8,32.5,8,37.4c0,0.6,0,1.2,0.1,1.8l-3,0
		l4.4,4.1l1.3,5.9l1.5-2.7c1.9,1.6,4.4,2.6,7.1,2.6c2.7,0,5.1-1,7.1-2.5l1.5,2.7l1.3-5.9l4.3-4.1L30.6,39.2"/>
	<path class="st0" d="M74.6,29V30h-3v3.9h3v4.6h3.6V29H74.6L74.6,29L74.6,29z M66.6,29.1h-3.4c0,1.8-0.3,2.5-0.8,3.3
		c-0.5,1-2,1.4-3.4,1.6v3.7c1.1-0.1,2.7-0.2,3.7-0.8c1.1-0.6,1.8-1.3,2.2-2.1c0.4,0.8,1,1.5,2,2.1c1,0.6,2.6,0.8,3.9,0.9v-3.7
		c-1.4-0.2-2.9-0.7-3.5-1.6C66.9,31.6,66.6,30.9,66.6,29.1 M62.4,43.9c0,3,3.5,5.4,7.9,5.4c4.3,0,7.9-2.4,7.9-5.4
		c0-3-3.6-5.4-7.9-5.4C66,38.6,62.4,41,62.4,43.9 M66.5,43.9c0-1.3,1.6-2.4,3.8-2.4c2.2,0,3.8,1.1,3.8,2.4c0,1.3-1.6,2.4-3.8,2.4
		C68.1,46.3,66.5,45.2,66.5,43.9 M38.2,29.2c0,0,0,15,0,16.6c0,1.6,1.5,1.5,1.5,1.5h11.5v-9H53v9h3.7V29.2H53v5.6h-1.8v-5.6h-3.6
		v14.5h-5.4V32.7h3.1v-3.5H38.2"/>
</g>
</svg>
