<svg width="24" height="24" viewBox="0 0 24 24" xmlns="http://www.w3.org/2000/svg">
    <path d="M18.96 18.033a.465.465 0 0 1-.372.184H5.412a.465.465 0 0 1-.37-.184.474.474 0 0 1-.099-.367l.912-2.638a.505.505 0 0 0 .027-.159v-3.826c0-3.428 2.744-6.217 6.117-6.217 3.374 0 6.118 2.789 6.118 6.217v3.826c0 .054.01.108.027.159l.904 2.614a.481.481 0 0 1-.089.391zm-4.608 1.619c0 1.319-1.055 2.391-2.353 2.391-1.297 0-2.353-1.072-2.353-2.391v-.478h4.706v.478zM10.588 2.83c0-.482.386-.874.861-.874h1.102c.474 0 .86.392.86.874v1.184a6.915 6.915 0 0 0-2.823 0V2.83zm9.37 14.56-.014-.042-.886-2.56v-3.745c0-3.116-1.968-5.767-4.706-6.755V2.83c0-1.009-.808-1.83-1.8-1.83h-1.103c-.994 0-1.803.821-1.803 1.83v1.458C6.91 5.276 4.94 7.927 4.94 11.043v3.745l-.898 2.602a1.45 1.45 0 0 0 .257 1.231c.27.352.675.553 1.113.553h3.293v.478C8.705 21.498 10.183 23 12 23c1.817 0 3.295-1.502 3.295-3.348v-.478h3.294c.437 0 .843-.201 1.113-.553.27-.351.362-.799.256-1.231z" fill="#FFF" fill-rule="nonzero"/>
</svg>
