<svg width="24" height="24" viewBox="0 0 24 24" xmlns="http://www.w3.org/2000/svg">
    <path d="M18.517 1C19.886 1 21 2.125 21 3.507v16.986C21 21.875 19.886 23 18.517 23H5.483C4.113 23 3 21.875 3 20.493V7.42c0-.264.212-.478.474-.478h3.043c1.306 0 2.369-1.073 2.369-2.392V1.478c0-.264.21-.478.473-.478zm-1.78 15.066H7.263a.952.952 0 0 0-.947.957c0 .528.424.956.947.956h9.474a.952.952 0 0 0 .947-.956.952.952 0 0 0-.947-.957zm0-3.826H7.263a.952.952 0 0 0-.947.956c0 .529.424.957.947.957h9.474a.952.952 0 0 0 .947-.957.952.952 0 0 0-.947-.956zM7.263 1.478v2.88a.942.942 0 0 1-.937.946H3.474l3.789-3.826z" fill="#FFF" fill-rule="nonzero"/>
</svg>
