<svg width="32" height="32" viewBox="0 0 32 32" xmlns="http://www.w3.org/2000/svg">
    <g fill-rule="nonzero" fill="none">
        <path d="M16 32C7.163 32 0 24.837 0 16S7.163 0 16 0s16 7.163 16 16c-.01 8.832-7.168 15.99-16 16z" fill="#F2AE57"/>
        <path d="M16 19.758a8.93 8.93 0 0 1 6.63 2.948.495.495 0 1 1-.738.661 7.94 7.94 0 0 0-11.783 0 .496.496 0 1 1-.739-.661A8.93 8.93 0 0 1 16 19.758zm-5.652-7.686a1.107 1.107 0 1 1 0 2.215 1.107 1.107 0 0 1 0-2.215zm11.304 0a1.107 1.107 0 1 1 0 2.215 1.107 1.107 0 0 1 0-2.215z" stroke="#FFF" fill="#FFF"/>
    </g>
</svg>
