<svg width="32" height="32" viewBox="0 0 32 32" xmlns="http://www.w3.org/2000/svg">
    <g fill-rule="nonzero" fill="none">
        <path d="M16 32C7.163 32 0 24.837 0 16S7.163 0 16 0s16 7.163 16 16c-.01 8.832-7.168 15.99-16 16z" fill="#63BA6D"/>
        <path d="M22.592 19.885c.204.183.22.496.038.7A8.9 8.9 0 0 1 16 23.532a8.9 8.9 0 0 1-6.63-2.947.496.496 0 0 1 .739-.662A7.907 7.907 0 0 0 16 22.54a7.908 7.908 0 0 0 5.892-2.618.496.496 0 0 1 .7-.038zm-11.82-7.729a1.107 1.107 0 1 1-.848 2.047 1.107 1.107 0 0 1 .847-2.047zm11.304 0a1.107 1.107 0 1 1-.848 2.047 1.107 1.107 0 0 1 .848-2.047z" stroke="#FFF" fill="#FFF"/>
    </g>
</svg>
