<svg width="32" height="32" viewBox="0 0 32 32" xmlns="http://www.w3.org/2000/svg">
    <path d="M14.456 16a.56.56 0 0 1 .548.571.56.56 0 0 1-.548.572h-5.69c-2.969 0-5.383 2.93-5.383 6.531v2.905c0 .46.291.85.637.85H19.2c.347 0 .639-.39.639-.85a.56.56 0 0 1 .548-.571.56.56 0 0 1 .549.571c0 1.099-.779 1.992-1.735 1.992H4.02c-.957 0-1.736-.893-1.736-1.992v-2.905c0-4.23 2.907-7.674 6.48-7.674zm10.306-4.572c.519 0 .965.4 1.034.933l.144 1.008c.1.056.2.114.297.176l.957-.39c.5-.19 1.039.01 1.298.471l1.075 1.887a1.113 1.113 0 0 1-.254 1.396l-.806.64a3.994 3.994 0 0 1 0 .33l.798.634.006.003a1.1 1.1 0 0 1 .264 1.389l-1.087 1.906c-.259.464-.8.66-1.29.463l-.962-.392c-.096.063-.195.12-.296.176l-.143 1.02c-.075.527-.526.96-1.042.922h-2.162c-.52 0-.966-.4-1.036-.932l-.142-1.009a5.23 5.23 0 0 1-.299-.176l-.959.391a1.046 1.046 0 0 1-1.294-.47l-1.075-1.889a1.101 1.101 0 0 1 .253-1.394l.81-.644a4.08 4.08 0 0 1 0-.328l-.799-.634a1.103 1.103 0 0 1-.26-1.406l1.074-1.89a1.039 1.039 0 0 1 1.29-.465l.963.392c.097-.062.195-.12.296-.175l.144-1.02a1.057 1.057 0 0 1 1.034-.923zm-.051 1.094-2.114.05-.139 1.264a.57.57 0 0 1-.32.44c-.223.103-.44.23-.641.377a.53.53 0 0 1-.514.064l-1.224-.498-1.023 1.874 1.016.735a.586.586 0 0 1 .213.517 3.31 3.31 0 0 0 0 .745.584.584 0 0 1-.214.51l-1.037.823 1.094 1.8 1.173-.512a.533.533 0 0 1 .515.066c.2.146.416.272.64.375.172.08.295.245.322.44l.185 1.315 2.114-.05.14-1.264a.572.572 0 0 1 .32-.44c.225-.104.439-.23.64-.377a.529.529 0 0 1 .515-.067l1.224.5 1-1.823-.99-.786a.582.582 0 0 1-.213-.517c.012-.122.02-.246.02-.369s-.008-.247-.02-.37c-.02-.2.06-.393.212-.516l1.036-.821-1.094-1.8-1.174.51a.526.526 0 0 1-.515-.065 3.63 3.63 0 0 0-.639-.376.566.566 0 0 1-.32-.44l-.188-1.314zm-1.032 2.907c1.206 0 2.192 1.026 2.193 2.284 0 1.262-.985 2.287-2.195 2.287-1.209 0-2.194-1.025-2.194-2.285 0-1.261.985-2.286 2.194-2.286zm-.002 1.142c-.605 0-1.097.513-1.097 1.144 0 .63.492 1.142 1.097 1.142.606 0 1.098-.512 1.098-1.142-.002-.63-.493-1.143-1.098-1.144zM11.611 3.429c2.722 0 4.937 2.307 4.937 5.142 0 2.836-2.215 5.143-4.937 5.143-2.723 0-4.937-2.307-4.937-5.143 0-2.835 2.214-5.142 4.937-5.142zm0 1.142c-2.117 0-3.84 1.795-3.84 4 0 2.206 1.723 4 3.84 4 2.116 0 3.84-1.794 3.84-4 0-2.205-1.724-4-3.84-4z" fill="#FFF" fill-rule="nonzero"/>
</svg>
