<svg width="24" height="24" viewBox="0 0 24 24" xmlns="http://www.w3.org/2000/svg">
    <path d="M19.24 9.783a.488.488 0 0 1 .536.442A8.42 8.42 0 0 1 20 12.139c.006 4.492-3.542 8.138-7.926 8.145a7.777 7.777 0 0 1-4.989-1.805l.17 1.982a.494.494 0 0 1-.434.538.49.49 0 0 1-.522-.45l-.286-3.257a.495.495 0 0 1 .436-.538l3.177-.293a.492.492 0 0 1 .587.499.492.492 0 0 1-.498.487l-2.101.194a6.846 6.846 0 0 0 6.092 1.444c3.742-.93 6.04-4.791 5.134-8.626a.496.496 0 0 1 .401-.676zm-1.862-6.781a.494.494 0 0 1 .444.538l.117 3.23v.05a.493.493 0 0 1-.465.499l-3.188.12h-.018a.492.492 0 0 1-.429-.423.496.496 0 0 1 .412-.564l2.077-.077a6.851 6.851 0 0 0-9.07.245c-1.896 1.759-2.7 4.439-2.096 6.985a.5.5 0 0 1-.354.598.482.482 0 0 1-.584-.363c-.687-2.9.23-5.95 2.387-7.951a7.79 7.79 0 0 1 10.321-.286l-.074-2.026a.49.49 0 0 1 .52-.575z" fill="#70707C" fill-rule="nonzero"/>
</svg>
