<svg width="24" height="24" viewBox="0 0 24 24" xmlns="http://www.w3.org/2000/svg">
    <path d="M13.878 2c.668 0 1.24.491 1.327 1.144l.284 1.93c.313.149.614.32.902.509l1.888-.738a1.366 1.366 0 0 1 1.666.582l1.867 3.148a1.311 1.311 0 0 1-.328 1.711l-1.592 1.213c.012.166.02.331.02.497 0 .17-.007.338-.02.504l1.587 1.209.005.003c.527.411.67 1.128.338 1.704l-1.882 3.169a1.367 1.367 0 0 1-1.655.572l-1.896-.741a8.105 8.105 0 0 1-.898.51l-.285 1.944A1.338 1.338 0 0 1 13.88 22h-3.765c-.666 0-1.237-.49-1.327-1.143l-.284-1.93a7.836 7.836 0 0 1-.9-.51l-1.887.739a1.377 1.377 0 0 1-1.667-.583l-1.868-3.148a1.316 1.316 0 0 1 .326-1.708l1.6-1.219a6.838 6.838 0 0 1-.02-.499c.001-.169.01-.335.021-.501L2.522 10.29a1.312 1.312 0 0 1-.332-1.721l1.865-3.155a1.358 1.358 0 0 1 1.657-.57l1.894.74c.29-.189.59-.359.9-.509l.283-1.944A1.34 1.34 0 0 1 10.116 2zm-3.754.952c-.18-.035-.366.135-.392.316L9.41 5.467a.478.478 0 0 1-.278.366 7.096 7.096 0 0 0-1.19.676.491.491 0 0 1-.447.054l-2.127-.832a.4.4 0 0 0-.49.165L3.008 9.057a.357.357 0 0 0 .092.477l1.796 1.367a.476.476 0 0 1 .185.432 6.528 6.528 0 0 0-.04.67c0 .199.013.417.038.667a.472.472 0 0 1-.185.426l-1.802 1.372a.37.37 0 0 0-.089.475l1.868 3.147c.1.171.32.244.508.175l2.11-.826a.48.48 0 0 1 .448.054c.375.264.776.491 1.192.673a.482.482 0 0 1 .28.366l.322 2.191a.383.383 0 0 0 .387.324h3.758a.382.382 0 0 0 .387-.315l.323-2.2a.482.482 0 0 1 .278-.365 7.189 7.189 0 0 0 1.192-.675.473.473 0 0 1 .446-.054l2.127.831c.18.071.394 0 .491-.166L21 14.935a.37.37 0 0 0-.1-.471l-1.795-1.367a.473.473 0 0 1-.185-.433 5.95 5.95 0 0 0 .04-.666 6.514 6.514 0 0 0-.04-.664.474.474 0 0 1 .185-.432l1.797-1.37a.365.365 0 0 0 .091-.473l-1.87-3.149a.414.414 0 0 0-.505-.175l-2.114.827a.479.479 0 0 1-.447-.055 6.916 6.916 0 0 0-1.193-.673.48.48 0 0 1-.28-.366l-.322-2.191a.383.383 0 0 0-.386-.325zM12 8.667a3.341 3.341 0 0 1 3.332 3.332 3.337 3.337 0 0 1-3.333 3.334A3.337 3.337 0 0 1 8.665 12a3.337 3.337 0 0 1 3.333-3.333zm-.001.952a2.384 2.384 0 0 0-2.381 2.38 2.384 2.384 0 0 0 2.38 2.382A2.384 2.384 0 0 0 14.38 12a2.389 2.389 0 0 0-2.381-2.381z" fill="#FFF" fill-rule="nonzero"/>
</svg>
