<svg width="32" height="32" viewBox="0 0 32 32" xmlns="http://www.w3.org/2000/svg">
    <path d="M13.351 1.143c1.158 0 2.1.948 2.1 2.116v1.49a9.269 9.269 0 0 1 4.535 3.096.555.555 0 0 1-.085.777.545.545 0 0 1-.77-.086 8.17 8.17 0 0 0-6.423-3.107c-4.537 0-8.228 3.718-8.228 8.291l-.03 7.923-1.064 3.05a.54.54 0 0 0 .114.424.546.546 0 0 0 .433.212h17.55a.551.551 0 0 0 .533-.687.554.554 0 0 1 .4-.67.546.546 0 0 1 .664.403 1.658 1.658 0 0 1-.299 1.423 1.633 1.633 0 0 1-1.297.636h-4.936v.553c0 2.134-1.722 3.87-3.84 3.87-2.117 0-3.84-1.736-3.84-3.87v-.553H3.933c-.51 0-.984-.232-1.298-.636a1.662 1.662 0 0 1-.3-1.423l1.048-3.01V13.72a9.406 9.406 0 0 1 6.582-8.982V3.26a2.11 2.11 0 0 1 2.1-2.116zm2.1 25.291H9.965v.553c0 1.525 1.23 2.765 2.743 2.765s2.743-1.24 2.743-2.765v-.553zM24.762 9.85c.52 0 .965.387 1.035.903l.144.975c.101.053.2.11.297.17l.956-.377a1.056 1.056 0 0 1 1.299.456l1.074 1.826a1.051 1.051 0 0 1-.255 1.351l-.805.618a3.683 3.683 0 0 1 0 .318l.798.615.006.002c.411.325.523.89.264 1.344l-1.087 1.844a1.042 1.042 0 0 1-1.287.449l-.964-.38a4.41 4.41 0 0 1-.296.17l-.143.986a1.05 1.05 0 0 1-1.036.892H22.59c-.517 0-.962-.386-1.031-.901l-.143-.976a4.77 4.77 0 0 1-.298-.17l-.96.376a1.056 1.056 0 0 1-1.293-.452l-1.075-1.829a1.043 1.043 0 0 1 .252-1.35l.81-.621a3.794 3.794 0 0 1 0-.318l-.798-.611a1.046 1.046 0 0 1-.26-1.363l1.073-1.83c.254-.44.806-.635 1.29-.447l.963.38c.097-.06.195-.117.296-.17l.144-.987a1.046 1.046 0 0 1 1.034-.893zm-.051 1.058-2.113.048-.14 1.224a.55.55 0 0 1-.32.424c-.223.1-.44.224-.64.367a.551.551 0 0 1-.515.062l-1.224-.482-1.024 1.812 1.017.711a.556.556 0 0 1 .214.5 3.113 3.113 0 0 0 0 .72.558.558 0 0 1-.215.494l-1.037.796 1.094 1.741 1.174-.493a.554.554 0 0 1 .515.063c.197.14.412.261.641.364a.553.553 0 0 1 .32.425l.185 1.271 2.115-.049.14-1.223a.553.553 0 0 1 .32-.425c.227-.102.441-.225.64-.365a.543.543 0 0 1 .515-.062l1.224.482 1-1.764-.991-.76a.555.555 0 0 1-.213-.5c.013-.119.02-.239.02-.358s-.007-.239-.02-.358a.555.555 0 0 1 .213-.499l1.035-.794-1.094-1.743-1.173.495a.54.54 0 0 1-.517-.063 3.609 3.609 0 0 0-.638-.364.55.55 0 0 1-.32-.425l-.188-1.272zm-1.032 2.812a2.208 2.208 0 0 1 2.193 2.21c0 1.22-.985 2.212-2.194 2.212a2.206 2.206 0 0 1-2.195-2.21c0-1.22.985-2.212 2.195-2.212zm-.001 1.105c-.606 0-1.098.496-1.098 1.107 0 .609.492 1.105 1.098 1.105.605 0 1.097-.496 1.097-1.105a1.105 1.105 0 0 0-1.097-1.107zM13.35 2.248h-1.285c-.554 0-1.004.454-1.004 1.011v1.219a9.308 9.308 0 0 1 1.646-.156c.559 0 1.107.064 1.646.16V3.26c0-.557-.45-1.011-1.003-1.011z" fill="#FFF" fill-rule="nonzero"/>
</svg>
