<svg width="32" height="32" viewBox="0 0 32 32" xmlns="http://www.w3.org/2000/svg">
    <path d="M14.96 2.681a1.563 1.563 0 0 1 2.193.113c2.291 2.53 6.904 2.92 8.782 2.97.837.022 1.493.72 1.493 1.589l-.003 8.396c-.028.415-.788 10.622-10.956 13.892a1.517 1.517 0 0 1-.94-.001C5.362 26.37 4.602 16.164 4.575 15.73L4.57 7.353c0-.869.657-1.567 1.495-1.589 1.877-.05 6.49-.44 8.78-2.97zm1.39.852a.458.458 0 0 0-.7.002c-2.573 2.84-7.54 3.273-9.554 3.326-.245.007-.436.222-.436.492v8.282c.027.429.733 9.914 10.201 12.96.09.03.192.029.276.001 9.47-3.047 10.177-12.532 10.202-12.935l.001-8.308c0-.27-.19-.485-.435-.492-2.016-.053-6.983-.485-9.556-3.328zm.725 6.42c.515 0 .957.385 1.027.895l.142.97c.1.052.2.11.296.169l.948-.375a1.047 1.047 0 0 1 1.288.452l1.065 1.813c.26.446.152 1.022-.252 1.342l-.798.615.002.157-.002.158.79.61c.415.325.527.885.27 1.336l-1.08 1.832c-.254.444-.79.632-1.276.446l-.956-.377a5.312 5.312 0 0 1-.295.168l-.142.978a1.041 1.041 0 0 1-1.027.887h-2.156c-.513 0-.954-.384-1.024-.895l-.14-.969c-.102-.053-.2-.11-.296-.168l-.951.374a1.05 1.05 0 0 1-1.285-.45l-1.067-1.815a1.039 1.039 0 0 1 .251-1.341l.804-.617a3.752 3.752 0 0 1-.004-.158v-.078l.004-.08-.792-.608a1.039 1.039 0 0 1-.259-1.352l1.065-1.816c.252-.437.8-.63 1.28-.445l.956.377c.096-.06.193-.117.294-.17l.141-.979a1.039 1.039 0 0 1 1.028-.885zm-.052 1.05-2.096.048-.138 1.216a.545.545 0 0 1-.318.42c-.22.1-.435.223-.635.365a.549.549 0 0 1-.51.062l-1.215-.48-1.016 1.8 1.01.706a.55.55 0 0 1 .21.496 3.346 3.346 0 0 0 0 .716.552.552 0 0 1-.212.49l-1.028.79 1.084 1.73 1.166-.49a.538.538 0 0 1 .51.062c.195.138.409.26.636.361a.55.55 0 0 1 .318.423l.184 1.262 2.097-.048.138-1.215a.554.554 0 0 1 .318-.423c.226-.1.439-.223.635-.361a.537.537 0 0 1 .511-.063l1.215.479.992-1.75-.983-.757a.553.553 0 0 1-.211-.496 3.33 3.33 0 0 0 .02-.355c0-.119-.008-.236-.02-.355a.55.55 0 0 1 .211-.495l1.028-.79-1.086-1.73-1.163.491a.536.536 0 0 1-.514-.062 3.6 3.6 0 0 0-.633-.362.544.544 0 0 1-.319-.421l-.186-1.263zM16 13.796a2.193 2.193 0 0 1 2.176 2.196A2.19 2.19 0 0 1 16 18.187a2.19 2.19 0 0 1-2.177-2.196 2.19 2.19 0 0 1 2.177-2.196zM16 14.894c-.6 0-1.088.492-1.088 1.097s.488 1.098 1.088 1.098c.6 0 1.088-.493 1.088-1.098a1.096 1.096 0 0 0-1.088-1.097z" fill="#FFF" fill-rule="nonzero"/>
</svg>
