<svg width="32" height="32" viewBox="0 0 32 32" xmlns="http://www.w3.org/2000/svg">
    <g fill-rule="nonzero" fill="none">
        <path d="M16 32C7.163 32 0 24.837 0 16S7.163 0 16 0s16 7.163 16 16c-.01 8.832-7.168 15.99-16 16z" fill="#F45959"/>
        <path d="M21.565 22.493a.496.496 0 1 1 0 .991h-11.13a.496.496 0 0 1 0-.99h11.13zM13.257 9.91a.495.495 0 0 1 .22.832l-2.432 2.432 2.433 2.432a.495.495 0 0 1-.266.839l-.085.006-.077-.005a.493.493 0 0 1-.273-.14l-2.432-2.432-2.434 2.433a.496.496 0 0 1-.7-.7l2.432-2.433-2.432-2.432a.496.496 0 1 1 .701-.7l2.433 2.432 2.432-2.432a.495.495 0 0 1 .48-.132zm5.965.132 2.432 2.432 2.432-2.432a.495.495 0 0 1 .7.7l-2.431 2.432 2.432 2.432a.495.495 0 0 1-.7.7l-2.433-2.432-2.433 2.433a.496.496 0 0 1-.7-.7l2.432-2.433-2.432-2.432a.496.496 0 1 1 .7-.7z" stroke="#FFF" fill="#FFF"/>
    </g>
</svg>
