<svg width="24" height="24" viewBox="0 0 24 24" xmlns="http://www.w3.org/2000/svg">
    <path d="M9.583 21c-1.443 0-2.867-.526-3.944-1.584A5.473 5.473 0 0 1 4 15.482c0-1.59.639-3.096 1.8-4.24l7.08-6.976c1.665-1.64 4.324-1.694 5.929-.118A3.978 3.978 0 0 1 20 7.01a4.285 4.285 0 0 1-1.303 3.072l-5.559 5.444c-1.02 1.006-2.658 1.036-3.649.064a2.49 2.49 0 0 1-.744-1.79c-.001-.716.285-1.393.805-1.904l3.537-3.41a.65.65 0 0 1 .943.037c.25.28.234.719-.036.98l-3.532 3.403a1.256 1.256 0 0 0-.384.893c0 .299.117.577.328.784.483.476 1.299.447 1.817-.064l5.559-5.444c.57-.562.886-1.296.885-2.065 0-.707-.276-1.366-.774-1.856-1.098-1.078-2.936-1.025-4.095.118l-7.08 6.975c-.894.88-1.386 2.029-1.384 3.234 0 1.116.434 2.156 1.22 2.929 1.712 1.681 4.571 1.602 6.373-.172l5.049-4.93a.648.648 0 0 1 .943.03.711.711 0 0 1-.03.979l-5.047 4.928A6.075 6.075 0 0 1 9.583 21" fill="#70707C" fill-rule="nonzero"/>
</svg>
