<svg width="24" height="24" viewBox="0 0 24 24" xmlns="http://www.w3.org/2000/svg">
    <path d="M18.517 1C19.886 1 21 2.125 21 3.507v16.986C21 21.875 19.886 23 18.517 23H5.484C4.114 23 3 21.875 3 20.493V6.463c0-.021.01-.04.013-.061a.482.482 0 0 1 .126-.276L8.077 1.14a.475.475 0 0 1 .273-.127C8.37 1.01 8.39 1 8.412 1zm0 .957H8.886v3.51a1.47 1.47 0 0 1-1.461 1.475H3.948v13.55c0 .856.689 1.552 1.536 1.552h13.033c.847 0 1.536-.696 1.536-1.551V3.507c0-.854-.69-1.55-1.536-1.55zm-1.78 14.587c.262 0 .474.214.474.478a.476.476 0 0 1-.474.48H7.263a.475.475 0 0 1-.473-.48c0-.264.21-.478.473-.478zm0-3.826c.262 0 .474.214.474.478a.476.476 0 0 1-.474.48H7.263a.475.475 0 0 1-.473-.48c0-.264.21-.478.473-.478zm-8.8-10.085-3.32 3.352h2.808a.516.516 0 0 0 .513-.518V2.633z" fill="#A7A7B1" fill-rule="nonzero"/>
</svg>
