<svg width="32" height="32" viewBox="0 0 32 32" xmlns="http://www.w3.org/2000/svg">
    <g fill-rule="nonzero" fill="none">
        <path d="M16 32C7.163 32 0 24.837 0 16S7.163 0 16 0s16 7.163 16 16c-.01 8.832-7.168 15.99-16 16z" fill="#70A0FF"/>
        <path d="M25.93 15.598a.501.501 0 0 1 .505.495c0 5.644-4.681 10.235-10.435 10.235-5.754 0-10.435-4.591-10.435-10.235a.501.501 0 0 1 .506-.495H25.93zm-.517.99H6.587l.016.216a9.147 9.147 0 0 0 2.98 6.053 9.543 9.543 0 0 0 12.833 0 9.147 9.147 0 0 0 2.98-6.053l.017-.215zm-2.68-9.443c.227.152.288.46.136.688L20.6 11.236h3.782a.496.496 0 0 1 0 .99h-4.708a.495.495 0 0 1-.412-.77l2.783-4.174a.496.496 0 0 1 .687-.137zm-12.777.138 2.782 4.174a.495.495 0 0 1-.412.77H7.618a.496.496 0 0 1 0-.992H11.4L9.13 7.833a.496.496 0 1 1 .826-.55z" stroke="#FFF" fill="#FFF"/>
    </g>
</svg>
