<svg width="24" height="24" viewBox="0 0 24 24" xmlns="http://www.w3.org/2000/svg">
    <path d="M6.071 15.806a6.891 6.891 0 0 1 0-9.735 6.867 6.867 0 0 1 4.868-2.013c1.762 0 3.526.672 4.867 2.013a6.84 6.84 0 0 1 2.017 4.868 6.84 6.84 0 0 1-2.017 4.867 6.893 6.893 0 0 1-9.735 0m14.774 4.29-3.934-3.934a7.875 7.875 0 0 0 1.971-5.223 7.893 7.893 0 0 0-2.327-5.617c-3.097-3.096-8.136-3.096-11.233 0-3.096 3.097-3.096 8.136 0 11.233a7.92 7.92 0 0 0 5.617 2.322 7.912 7.912 0 0 0 5.222-1.967l3.935 3.935a.529.529 0 1 0 .749-.749" fill="#FFF" fill-rule="nonzero"/>
</svg>
