<svg width="24" height="24" viewBox="0 0 24 24" xmlns="http://www.w3.org/2000/svg">
    <g fill="none" fill-rule="evenodd">
        <path d="M0 0h24v24H0z"/>
        <path d="M23.515 12.271c0-.823-.073-1.644-.22-2.453H11.998v4.64h6.458a5.52 5.52 0 0 1-2.4 3.62v3.011h3.877a11.698 11.698 0 0 0 3.583-8.818z" fill="#4285F4" fill-rule="nonzero"/>
        <path d="M11.997 23.996c2.92.079 5.76-.961 7.94-2.907l-3.877-3.011a7.239 7.239 0 0 1-10.776-3.8H1.276v3.109a11.998 11.998 0 0 0 10.721 6.609z" fill="#34A853" fill-rule="nonzero"/>
        <path d="M5.284 14.278a7.1 7.1 0 0 1 0-4.56V6.61H1.276a12.017 12.017 0 0 0 0 10.777l4.008-3.11z" fill="#FBBC05" fill-rule="nonzero"/>
        <path d="M11.997 4.773a6.483 6.483 0 0 1 4.586 1.8l3.45-3.44A11.533 11.533 0 0 0 11.996 0 11.997 11.997 0 0 0 1.276 6.61l4.008 3.109a7.15 7.15 0 0 1 6.713-4.95v.004z" fill="#EA4335" fill-rule="nonzero"/>
    </g>
</svg>
