<svg width="64" height="48" viewBox="0 0 64 48" xmlns="http://www.w3.org/2000/svg">
    <defs>
        <linearGradient x1="50%" y1="0%" x2="50%" y2="100%" id="vt6tlsf8ua">
            <stop stop-color="#63636C" offset="0%"/>
            <stop stop-color="#3B3B43" offset="100%"/>
        </linearGradient>
    </defs>
    <path d="m48.174 47.556-8.7-8.176c-.367.062-.74.093-1.112.094H11.426c-3.561.002-6.452-2.782-6.461-6.222V12.284A6.07 6.07 0 0 1 6.443 8.33L.51 2.755A1.565 1.565 0 0 1 .05 1.21C.196.65.641.212 1.215.059a1.698 1.698 0 0 1 1.612.407l47.666 44.8c.642.62.648 1.624.013 2.252a1.701 1.701 0 0 1-2.332.039zM58.193 35.55l-10.148-5.603V15.518l10.081-5.605a3.336 3.336 0 0 1 1.098-.435 4.1 4.1 0 0 1 .9-.101c1.027 0 2.012.396 2.736 1.1A3.61 3.61 0 0 1 64 13.091v19.224a3.726 3.726 0 0 1-.513 1.866 3.819 3.819 0 0 1-2.35 1.759 3.953 3.953 0 0 1-2.944-.39zM44.77 33.953 15.756 6.06h22.606a6.546 6.546 0 0 1 4.568 1.815 6.102 6.102 0 0 1 1.886 4.41v20.968c0 .235-.014.469-.042.702h-.003z" fill="url(#vt6tlsf8ua)" fill-rule="nonzero"/>
</svg>
