<svg width="102" height="70" viewBox="0 0 102 70" xmlns="http://www.w3.org/2000/svg" xmlns:xlink="http://www.w3.org/1999/xlink">
    <defs>
        <path d="M.952 3.114a6.499 6.499 0 1 0 11.096 6.77A6.5 6.5 0 0 0 9.885.953 6.496 6.496 0 0 0 .952 3.115" id="st2pd9g55a"/>
        <path d="M5.215.13A6.5 6.5 0 0 0 .13 7.783a6.5 6.5 0 0 0 12.741-2.57v.001A6.501 6.501 0 0 0 6.508 0c-.426 0-.858.042-1.292.13" id="yr5nm4p96c"/>
    </defs>
    <g fill="none" fill-rule="evenodd">
        <path fill="#E37F52" d="M39 62h10V41H39zM58 62h10V40H58zM81 62h10V44H81z"/>
        <path fill="#F4A06D" d="M26 62h15V29H26z"/>
        <path fill="#E48454" d="M39 34h1v-1h-1zM36 34h1v-1h-1zM33 34h1v-1h-1zM31 34h1v-1h-1zM28 34h1v-1h-1zM39 37h1v-1h-1zM36 37h1v-1h-1zM33 37h1v-1h-1zM31 37h1v-1h-1zM28 37h1v-1h-1zM39 40h1v-1h-1zM36 40h1v-1h-1zM33 40h1v-1h-1zM31 40h1v-1h-1zM28 40h1v-1h-1zM39 44h1v-1h-1zM36 44h1v-1h-1zM33 44h1v-1h-1zM31 44h1v-1h-1zM28 44h1v-1h-1zM39 47h1v-1h-1zM36 47h1v-1h-1zM33 47h1v-1h-1zM31 47h1v-1h-1zM28 47h1v-1h-1zM39 50h1v-1h-1zM36 50h1v-1h-1zM33 50h1v-1h-1zM31 50h1v-1h-1zM28 50h1v-1h-1zM39 53h1v-1h-1zM36 53h1v-1h-1zM33 53h1v-1h-1zM31 53h1v-1h-1zM28 53h1v-1h-1zM31 62h6v-6h-6z"/>
        <path fill="#F4A06D" d="M91.296 16v5.082H89V62h13V21.082h-2.295V16z"/>
        <path fill="#E37F52" d="M90 24h10v-1H90zM92 19h6v-1h-6zM90 27h10v-1H90zM90 30h10v-1H90zM90 34h10v-1H90zM90 37h10v-1H90zM90 40h10v-1H90zM90 43h10v-1H90zM90 46h10v-1H90zM90 49h10v-1H90zM90 52h10v-1H90zM90 55h10v-1H90zM90 62h10v-6H90z"/>
        <path fill="#D66759" d="M68.318 23.463V18.71h1.275V15h11.814v3.71h1.275v4.753H84V62H67V23.463z"/>
        <path fill="#E37F52" d="M82 29h1v-2h-1zM79 29h1v-2h-1zM77 29h1v-2h-1zM74 29h1v-2h-1zM72 29h1v-2h-1zM69 29h1v-2h-1zM79 25h1v-2h-1zM77 25h1v-2h-1zM74 25h1v-2h-1zM72 25h1v-2h-1zM79 21h1v-2h-1zM77 21h1v-2h-1zM74 21h1v-2h-1zM72 21h1v-2h-1zM82 34h1v-2h-1zM79 34h1v-2h-1zM77 34h1v-2h-1zM74 34h1v-2h-1zM72 34h1v-2h-1zM69 34h1v-2h-1zM82 39h1v-2h-1zM79 39h1v-2h-1zM77 39h1v-2h-1zM74 39h1v-2h-1zM72 39h1v-2h-1zM69 39h1v-2h-1zM82 44h1v-2h-1zM79 44h1v-2h-1zM77 44h1v-2h-1zM74 44h1v-2h-1zM72 44h1v-2h-1zM69 44h1v-2h-1zM82 48h1v-2h-1zM79 48h1v-2h-1zM77 48h1v-2h-1zM74 48h1v-2h-1zM72 48h1v-2h-1zM69 48h1v-2h-1zM82 53h1v-2h-1zM70 62h12v-6H70zM79 53h1v-2h-1zM77 53h1v-2h-1zM74 53h1v-2h-1zM72 53h1v-2h-1zM69 53h1v-2h-1z"/>
        <path fill="#F4A06D" d="M50.691 35.296V25H62v37H47V35.296z"/>
        <path fill="#E37F52" d="M58 32h2v-2h-2zM54 32h2v-2h-2zM58 36h2v-2h-2zM54 36h2v-2h-2zM58 40h2v-2h-2zM54 40h2v-2h-2zM58 45h2v-2h-2zM54 45h2v-2h-2zM58 49h2v-2h-2zM54 49h2v-2h-2zM58 53h2v-2h-2zM54 53h2v-2h-2zM49 40h2v-2h-2zM49 45h2v-2h-2zM49 49h2v-2h-2zM49 53h2v-2h-2zM58 58h2v-2h-2zM54 58h2v-2h-2zM49 62h3v-6h-3z"/>
        <path d="M39.64 25c1.855 0 3.36 1.523 3.36 3.402v9.83h-8.852V25h5.491z" fill="#CBB8B0"/>
        <path d="m13.458 46.38.014-17.978c0-1.879 1.505-3.402 3.36-3.402H39.64c-1.856 0-3.361 1.523-3.361 3.402l-.014 21.024c0 1.878-1.505 3.402-3.361 3.402-1.856 0-3.362-1.524-3.362-3.402V46.35l-16.084.03z" fill="#F6F6F6"/>
        <path d="M22.82 46.362v-.012c0-1.879 1.505-3.402 3.361-3.402 1.857 0 3.36 1.523 3.36 3.402h.002v3.076c0 1.879 1.504 3.402 3.361 3.402H22.819l.002-6.466z" fill="#CBB8B0"/>
        <path d="M33.4 30.463H16.267a.302.302 0 0 1-.3-.304c0-.168.134-.304.3-.304H33.4c.166 0 .3.136.3.304a.302.302 0 0 1-.3.304M33.4 33.474H16.267a.302.302 0 0 1-.3-.303c0-.168.134-.304.3-.304H33.4c.166 0 .3.136.3.304a.302.302 0 0 1-.3.303M33.4 36.563H16.267a.302.302 0 0 1-.3-.304c0-.168.134-.303.3-.303H33.4c.166 0 .3.135.3.303a.302.302 0 0 1-.3.304M29.226 39.575h-12.96a.302.302 0 0 1-.3-.304c0-.168.135-.303.3-.303h12.96c.166 0 .3.135.3.303a.302.302 0 0 1-.3.304" fill="#AD6D26"/>
        <path d="m.083 70 .812-.822.812.822.812-.822.813.822.811-.822.813.822.811-.822.812.822.812-.822.812.822.813-.822.811.822.813-.822.811.822.812-.822.812.822.812-.822.812.822.812-.822.812.822.812-.822.812.822.812-.822.812.822.812-.822.812.822.812-.822.812.822-.012-1.295.014-22.355c0-1.879 1.505-3.402 3.36-3.402H3.375c-1.856 0-3.361 1.523-3.361 3.402L0 68.705.083 70z" fill="#FEFEFE"/>
        <path d="M19.576 49.045H2.443a.302.302 0 0 1-.3-.303c0-.168.135-.304.3-.304h17.133c.166 0 .3.136.3.304a.302.302 0 0 1-.3.303M19.576 52.057H2.443a.302.302 0 0 1-.3-.303c0-.168.135-.304.3-.304h17.133c.166 0 .3.136.3.304a.302.302 0 0 1-.3.303M19.576 55.146H2.443a.302.302 0 0 1-.3-.304c0-.168.135-.303.3-.303h17.133c.166 0 .3.135.3.303a.302.302 0 0 1-.3.304M15.403 58.158H2.443a.302.302 0 0 1-.3-.304c0-.168.134-.303.3-.303h12.96c.165 0 .3.135.3.303a.302.302 0 0 1-.3.304M19.576 61.247H2.443a.302.302 0 0 1-.3-.304c0-.168.135-.304.3-.304h17.133c.166 0 .3.136.3.304a.302.302 0 0 1-.3.304M15.403 64.259H2.443a.302.302 0 0 1-.3-.304c0-.168.134-.304.3-.304h12.96c.165 0 .3.136.3.304a.302.302 0 0 1-.3.304" fill="#AD6D26"/>
        <g transform="translate(86 23)">
            <mask id="x4epxv39db" fill="#fff">
                <use xlink:href="#st2pd9g55a"/>
            </mask>
            <path d="M.952 3.114a6.499 6.499 0 1 0 11.096 6.77A6.5 6.5 0 0 0 9.885.953 6.496 6.496 0 0 0 .952 3.115" fill="#8B6A3D" mask="url(#x4epxv39db)"/>
        </g>
        <g>
            <path d="M99.048 32.885a6.499 6.499 0 1 1-11.096-6.769 6.499 6.499 0 0 1 11.096 6.769" fill="#F0AC57"/>
            <path d="M93.51 23.987c-1.861 0-3.68.94-4.717 2.641a5.48 5.48 0 0 0-.651 4.17 5.474 5.474 0 0 0 2.487 3.409 5.52 5.52 0 0 0 7.578-1.836 5.52 5.52 0 0 0-1.836-7.579 5.485 5.485 0 0 0-2.862-.805m-.018 11.326a5.777 5.777 0 0 1-3.019-.85 5.774 5.774 0 0 1-2.623-3.595 5.778 5.778 0 0 1 .687-4.396 5.821 5.821 0 0 1 7.992-1.936 5.822 5.822 0 0 1 1.936 7.992 5.817 5.817 0 0 1-4.973 2.785" fill="#FEEEAE"/>
            <path d="M93.172 32.18a.301.301 0 0 1-.285-.397l1.02-2.997-2.197 2.278a.301.301 0 0 1-.501-.306l1.453-4.27a.3.3 0 1 1 .57.192l-1.02 2.997L94.41 27.4a.301.301 0 0 1 .501.306l-1.019 2.996 2.198-2.278a.3.3 0 1 1 .432.417l-3.133 3.248a.3.3 0 0 1-.216.092" fill="#3B2B16"/>
            <path d="M95.766 30.94a.3.3 0 0 1-.157-.045l-4.315-2.632a.3.3 0 0 1 .313-.514l4.316 2.633a.3.3 0 0 1-.157.557" fill="#3B2B16"/>
        </g>
        <g transform="translate(80 1)">
            <mask id="nxgjk8ynfd" fill="#fff">
                <use xlink:href="#yr5nm4p96c"/>
            </mask>
            <path d="M5.215.13A6.5 6.5 0 0 0 .13 7.783a6.5 6.5 0 0 0 12.741-2.57v.001A6.501 6.501 0 0 0 6.508 0c-.426 0-.858.042-1.292.13" fill="#8B6A3D" mask="url(#nxgjk8ynfd)"/>
        </g>
        <g>
            <path d="M92.87 5.215a6.5 6.5 0 1 1-12.742 2.569 6.5 6.5 0 0 1 12.743-2.569" fill="#F0AC57"/>
            <path d="M86.512.985a5.518 5.518 0 0 0-5.415 6.604 5.522 5.522 0 0 0 6.493 4.316 5.476 5.476 0 0 0 3.502-2.354 5.476 5.476 0 0 0 .813-4.14 5.481 5.481 0 0 0-2.354-3.503 5.473 5.473 0 0 0-3.04-.923m-.013 11.33a5.825 5.825 0 0 1-5.697-4.666A5.821 5.821 0 0 1 85.35.8a5.78 5.78 0 0 1 4.367.857 5.775 5.775 0 0 1 2.481 3.693 5.778 5.778 0 0 1-.856 4.367 5.775 5.775 0 0 1-3.694 2.482 5.866 5.866 0 0 1-1.15.116" fill="#FEEEAE"/>
            <path d="M85.948 9.158a.302.302 0 0 1-.275-.179l-1.834-4.122a.3.3 0 1 1 .55-.244l1.286 2.891.065-3.164a.302.302 0 0 1 .576-.116l1.286 2.892.066-3.165a.301.301 0 0 1 .601.013l-.093 4.511a.301.301 0 0 1-.575.116L86.314 5.7l-.066 3.164a.3.3 0 0 1-.3.295" fill="#3B2B16"/>
            <path d="M83.982 7.096a.3.3 0 0 1-.06-.595l4.955-1a.301.301 0 0 1 .118.59l-4.954 1a.282.282 0 0 1-.06.005" fill="#3B2B16"/>
        </g>
    </g>
</svg>
