<svg width="120" height="20" viewBox="0 0 120 20" xmlns="http://www.w3.org/2000/svg" xmlns:xlink="http://www.w3.org/1999/xlink">
    <defs>
        <filter color-interpolation-filters="auto" id="v5i9fbxnea">
            <feColorMatrix in="SourceGraphic" values="0 0 0 0 0.129412 0 0 0 0 0.129412 0 0 0 0 0.129412 0 0 0 1.000000 0"/>
        </filter>
        <path id="gsbqm0ebob" d="M0 20h120V0H0z"/>
    </defs>
    <g transform="translate(-120 -397)" filter="url(#v5i9fbxnea)" fill="none" fill-rule="evenodd">
        <g transform="translate(120 397)">
            <path d="M106.063 6.327v8.304c-2.739.131-3.658-2.273-3.658-4.242V6.332h-2.075l-.01 3.961c0 2.414-1.224 4.223-2.872 4.244v2.034c2.318-.085 3.311-1.197 3.91-2.202 1.221 2.24 4.154 2.246 4.705 2.227v.24h2.061V6.326h-2.06zM113.492 6.327h2.317s-.101 3.283 4.17 3.452v2.14s-3.404.19-5.358-2.16c-1.854 2.37-5.321 2.16-5.321 2.16v-2.14s4.192-.043 4.192-3.452" fill="#FEFEFE"/>
            <mask id="lq1m6b4gic" fill="#fff">
                <use xlink:href="#gsbqm0ebob"/>
            </mask>
            <path fill="#FEFEFE" mask="url(#lq1m6b4gic)" d="M109.281 16.836H120v-2.202h-10.719zM76.413 11.86c-.545 0-.988-.847-.988-1.89 0-1.044.443-1.89.988-1.89.545 0 .987.846.987 1.89 0 1.043-.442 1.89-.987 1.89zm3.768-5.533v2.711h-.78c-.333-1.678-1.543-2.923-2.988-2.923-1.703 0-3.083 1.726-3.083 3.855 0 2.128 1.38 3.854 3.083 3.854 1.408 0 2.594-1.182 2.962-2.795h.806v5.802h2.055V6.327H80.18zM83.001 16.831h2.056V6.328h-2.056zM94.206 6.327v1.991h-2.66v1.99h2.66v4.024h-5.683V6.327h-2.055v8.577c0 .868.18 1.42 1.37 1.42h6.368v.506h2.054V6.327h-2.054zM69.413 0l-26.33 6.238L46.038 20l26.326-6.3L69.414 0zM56.836 4.469 57.8 9.17l-1.877.44-1.003-4.737 1.916-.404zm-3.41.764c1.022-.204 1.267.816 1.267.816l.774 3.667-1.844.474-.63-2.708-.928.152-.437-1.941 1.798-.46zm-5.79 4.957s-.818 1.792-2.474 2.146l-.489-2.097s1.702-.46.831-3.115l1.991-.459s.586 1.38.343 2.761c0 0 1.264-.461.582-3.017l1.99-.511s.293 2.66 2.191 2.559l.441 1.733s-1.069.82-2.722-.565c0 0-.2 1.33-2.338 1.844l-.346-1.279zm2.584 6.784s-.713.099-1.01-.649l-.547-2.625 7.521-1.773-.067-.374-7.515 1.737-.33-1.603 9.632-2.208.74 3.402-7.514 1.775.063.305 7.52-1.703.358 1.568-8.85 2.148zm9.43-7.396-1.133-5.453 6.58-1.565.354 1.769-4.5 1.092.097.477 4.403-1.025.33 1.671-4.348 1.026.066.376 5.775-1.332-.91-4.329 2.102-.544 1.374 6.166-9.408 2.283s-.582.101-.782-.612zm8.594 1.396-7.677 1.807-.428-1.873 9.79-2.317.814 3.877-2.044.449-.455-1.943zM14.533 12.13c.053-.344.077-.688.077-1.04 0-2.88-1.702-5.35-4.114-6.337l.845-1.533-3.214 1.065L4.92 3.22l.838 1.534c-2.398.999-4.094 3.46-4.094 6.337 0 .352.024.696.07 1.04L0 12.125l2.488 2.393.734 3.455.857-1.576A6.273 6.273 0 0 0 8.134 17.9c1.533 0 2.936-.563 4.046-1.492l.858 1.566.73-3.456 2.483-2.392-1.718.005m-6.4 4.4c-1.3 0-2.483-.5-3.396-1.332l1.668-3.06-3.354-.007a5.823 5.823 0 0 1-.1-1.041c0-2.378 1.453-4.395 3.47-5.14l1.706 3.093 1.709-3.098c2.029.737 3.483 2.767 3.483 5.145 0 .354-.036.707-.096 1.04l-3.38.008 1.679 3.072a5.028 5.028 0 0 1-3.388 1.32M18.902 6.245v9.757c0 .952.875.904.875.904h6.565V11.64h1.01v5.267h2.115V6.246h-2.114v3.268h-1.041V6.245H24.23v8.503h-3.08V8.324h1.782V6.245h-4.03zm16.178 8.676c0-.788.92-1.41 2.199-1.41 1.264 0 2.184.622 2.184 1.41 0 .771-.92 1.41-2.184 1.41-1.28 0-2.2-.639-2.2-1.41zm-2.325 0c0 1.738 2.027 3.165 4.524 3.165 2.48 0 4.509-1.427 4.509-3.165 0-1.753-2.028-3.165-4.51-3.165-2.496 0-4.523 1.412-4.523 3.165zm2.4-8.724H33.24c0 1.05-.157 1.476-.438 1.968-.311.573-1.14.804-1.966.951v2.148c.625-.034 1.53-.13 2.137-.475.609-.36 1.03-.788 1.248-1.248.204.444.594.87 1.155 1.214.593.362 1.514.46 2.2.51V9.115c-.826-.147-1.654-.394-1.981-.968-.281-.508-.453-.919-.438-1.95zm4.543-.082v.623h-1.733v2.28h1.733v2.705h2.029V6.115h-2.03z"/>
        </g>
    </g>
</svg>
